<svg role="img" viewBox="0 0 24 24" xmlns="http://www.w3.org/2000/svg"><title>KorGE</title><path d="M1.107 7.29a3.837 3.837 0 0 1 5.39 0 3.838 3.838 0 0 1 0 5.391 3.837 3.837 0 0 1-5.39 0 3.838 3.838 0 0 1 0-5.391zm4.953 3.775a2.502 2.502 0 1 0-1.179 1.178 1.408 1.408 0 0 1-1.198-2.377 1.407 1.407 0 0 1 2.377 1.199Zm1.251-9.96a3.837 3.837 0 0 1 5.391 0 3.838 3.838 0 0 1 0 5.392 3.837 3.837 0 0 1-5.39 0 3.838 3.838 0 0 1 0-5.391zm4.943 3.776a2.502 2.502 0 1 0-1.179 1.179 1.408 1.408 0 0 1-1.199-2.378 1.407 1.407 0 0 1 2.378 1.199zm5.673-1.44c-.198.095-.71.585-3.63 3.494l-7.36 7.373C3.244 18.02 3.35 17.885 3.35 18.364c0 .313.146.615.459.918.313.313.594.448.917.448.48 0 .438.031 3.254-2.763 2.263-2.263 2.555-2.534 2.576-2.45l.98 8.633c.073.313.292.594.563.73.176.092.375.132.574.115.52 0 .834-.104 1.105-.365.24-.25.302-.407.302-.834 0-.156-.876-8.176-1.043-9.761.01 0 9.74 1.064 9.906 1.043.657-.063 1.012-.48 1.053-1.251.042-.73-.219-1.137-.855-1.293-.136-.031-8.727-1.001-8.727-1.001l2.555-2.565c1.877-1.877 2.585-2.607 2.648-2.753.207-.381.157-.85-.124-1.178-.49-.636-1.032-.834-1.575-.594"/></svg>